<?xml version="1.0" encoding="UTF-8" standalone="no"?>
<!DOCTYPE svg PUBLIC "-//W3C//DTD SVG 1.1//EN"
 "http://www.w3.org/Graphics/SVG/1.1/DTD/svg11.dtd">
<!-- Generated by graphviz version 2.47.0 (20210316.0004)
 -->
<!-- Title: dependencies Pages: 1 -->
<svg width="7691pt" height="284pt"
 viewBox="0.00 0.00 7691.00 284.00" xmlns="http://www.w3.org/2000/svg" xmlns:xlink="http://www.w3.org/1999/xlink">
<g id="graph0" class="graph" transform="scale(1 1) rotate(0) translate(4 280)">
<title>dependencies</title>
<polygon fill="white" stroke="transparent" points="-4,4 -4,-280 7687,-280 7687,4 -4,4"/>
<text text-anchor="start" x="3820.51" y="-42.4" font-family="sans-serif" font-weight="bold" font-size="14.00">Legend</text>
<polygon fill="#ffffb3" stroke="transparent" points="3607.5,-10 3607.5,-30 3627.5,-30 3627.5,-10 3607.5,-10"/>
<text text-anchor="start" x="3631.13" y="-15.4" font-family="sans-serif" font-size="14.00"> &#160;Declarations</text>
<polygon fill="#8dd3c7" stroke="transparent" points="3720.5,-10 3720.5,-30 3740.5,-30 3740.5,-10 3720.5,-10"/>
<text text-anchor="start" x="3744.23" y="-15.4" font-family="sans-serif" font-size="14.00"> &#160;Module</text>
<polygon fill="#80b1d3" stroke="transparent" points="3806.5,-10 3806.5,-30 3826.5,-30 3826.5,-10 3806.5,-10"/>
<text text-anchor="start" x="3830.28" y="-15.4" font-family="sans-serif" font-size="14.00"> &#160;Bootstrap</text>
<polygon fill="#fdb462" stroke="transparent" points="3903.5,-10 3903.5,-30 3923.5,-30 3923.5,-10 3903.5,-10"/>
<text text-anchor="start" x="3927.17" y="-15.4" font-family="sans-serif" font-size="14.00"> &#160;Providers</text>
<polygon fill="#fb8072" stroke="transparent" points="3999.5,-10 3999.5,-30 4019.5,-30 4019.5,-10 3999.5,-10"/>
<text text-anchor="start" x="4023.23" y="-15.4" font-family="sans-serif" font-size="14.00"> &#160;Exports</text>
<g id="clust1" class="cluster">
<title>cluster_AppModule</title>
<polygon fill="none" stroke="black" stroke-dasharray="1,5" points="8,-70 8,-268 7675,-268 7675,-70 8,-70"/>
</g>
<g id="clust46" class="cluster">
<title>cluster_AppModule_imports</title>
<polygon fill="none" stroke="black" points="7523,-78 7523,-130 7667,-130 7667,-78 7523,-78"/>
</g>
<g id="clust48" class="cluster">
<title>cluster_AppModule_bootstrap</title>
<polygon fill="none" stroke="black" points="3961,-208 3961,-260 4085,-260 4085,-208 3961,-208"/>
</g>
<g id="clust2" class="cluster">
<title>cluster_AppModule_declarations</title>
<polygon fill="none" stroke="black" points="16,-78 16,-130 7515,-130 7515,-78 16,-78"/>
</g>
<!-- AboutUsComponent -->
<g id="node1" class="node">
<title>AboutUsComponent</title>
<polygon fill="#ffffb3" stroke="black" points="7506.88,-122 7375.12,-122 7375.12,-86 7506.88,-86 7506.88,-122"/>
<text text-anchor="middle" x="7441" y="-99.8" font-family="Times,serif" font-size="14.00">AboutUsComponent</text>
</g>
<!-- AppModule -->
<g id="node44" class="node">
<title>AppModule</title>
<polygon fill="#8dd3c7" stroke="black" points="4064.66,-187 4061.66,-191 4040.66,-191 4037.66,-187 3981.34,-187 3981.34,-151 4064.66,-151 4064.66,-187"/>
<text text-anchor="middle" x="4023" y="-164.8" font-family="Times,serif" font-size="14.00">AppModule</text>
</g>
<!-- AboutUsComponent&#45;&gt;AppModule -->
<g id="edge1" class="edge">
<title>AboutUsComponent&#45;&gt;AppModule</title>
<path fill="none" stroke="black" d="M7441,-122.15C7441,-145.76 7441,-184 7441,-184 7441,-184 4074.68,-184 4074.68,-184"/>
<polygon fill="black" stroke="black" points="4074.68,-180.5 4064.68,-184 4074.68,-187.5 4074.68,-180.5"/>
</g>
<!-- AccountSettingComponent -->
<g id="node2" class="node">
<title>AccountSettingComponent</title>
<polygon fill="#ffffb3" stroke="black" points="7357.43,-122 7188.57,-122 7188.57,-86 7357.43,-86 7357.43,-122"/>
<text text-anchor="middle" x="7273" y="-99.8" font-family="Times,serif" font-size="14.00">AccountSettingComponent</text>
</g>
<!-- AccountSettingComponent&#45;&gt;AppModule -->
<g id="edge2" class="edge">
<title>AccountSettingComponent&#45;&gt;AppModule</title>
<path fill="none" stroke="black" d="M7273,-122.32C7273,-145.66 7273,-183 7273,-183 7273,-183 4074.68,-183 4074.68,-183"/>
<polygon fill="black" stroke="black" points="4074.68,-179.5 4064.68,-183 4074.68,-186.5 4074.68,-179.5"/>
</g>
<!-- AllRestaurantsComponent -->
<g id="node3" class="node">
<title>AllRestaurantsComponent</title>
<polygon fill="#ffffb3" stroke="black" points="7171.03,-122 7006.97,-122 7006.97,-86 7171.03,-86 7171.03,-122"/>
<text text-anchor="middle" x="7089" y="-99.8" font-family="Times,serif" font-size="14.00">AllRestaurantsComponent</text>
</g>
<!-- AllRestaurantsComponent&#45;&gt;AppModule -->
<g id="edge3" class="edge">
<title>AllRestaurantsComponent&#45;&gt;AppModule</title>
<path fill="none" stroke="black" d="M7089,-122.25C7089,-145.02 7089,-181 7089,-181 7089,-181 4074.89,-181 4074.89,-181"/>
<polygon fill="black" stroke="black" points="4074.89,-177.5 4064.89,-181 4074.89,-184.5 4074.89,-177.5"/>
</g>
<!-- AppComponent -->
<g id="node4" class="node">
<title>AppComponent</title>
<polygon fill="#ffffb3" stroke="black" points="6988.94,-122 6883.06,-122 6883.06,-86 6988.94,-86 6988.94,-122"/>
<text text-anchor="middle" x="6936" y="-99.8" font-family="Times,serif" font-size="14.00">AppComponent</text>
</g>
<!-- AppComponent&#45;&gt;AppModule -->
<g id="edge4" class="edge">
<title>AppComponent&#45;&gt;AppModule</title>
<path fill="none" stroke="black" d="M6936,-122.16C6936,-144.35 6936,-179 6936,-179 6936,-179 4074.74,-179 4074.74,-179"/>
<polygon fill="black" stroke="black" points="4074.74,-175.5 4064.74,-179 4074.74,-182.5 4074.74,-175.5"/>
</g>
<!-- ArticleCommonCardComponent -->
<g id="node5" class="node">
<title>ArticleCommonCardComponent</title>
<polygon fill="#ffffb3" stroke="black" points="6865.53,-122 6666.47,-122 6666.47,-86 6865.53,-86 6865.53,-122"/>
<text text-anchor="middle" x="6766" y="-99.8" font-family="Times,serif" font-size="14.00">ArticleCommonCardComponent</text>
</g>
<!-- ArticleCommonCardComponent&#45;&gt;AppModule -->
<g id="edge5" class="edge">
<title>ArticleCommonCardComponent&#45;&gt;AppModule</title>
<path fill="none" stroke="black" d="M6766,-122.29C6766,-144.21 6766,-178 6766,-178 6766,-178 4074.72,-178 4074.72,-178"/>
<polygon fill="black" stroke="black" points="4074.72,-174.5 4064.72,-178 4074.72,-181.5 4074.72,-174.5"/>
</g>
<!-- ArticleHeadlineCardComponent -->
<g id="node6" class="node">
<title>ArticleHeadlineCardComponent</title>
<polygon fill="#ffffb3" stroke="black" points="6647.94,-122 6450.06,-122 6450.06,-86 6647.94,-86 6647.94,-122"/>
<text text-anchor="middle" x="6549" y="-99.8" font-family="Times,serif" font-size="14.00">ArticleHeadlineCardComponent</text>
</g>
<!-- ArticleHeadlineCardComponent&#45;&gt;AppModule -->
<g id="edge6" class="edge">
<title>ArticleHeadlineCardComponent&#45;&gt;AppModule</title>
<path fill="none" stroke="black" d="M6549,-122.17C6549,-143.5 6549,-176 6549,-176 6549,-176 4074.74,-176 4074.74,-176"/>
<polygon fill="black" stroke="black" points="4074.74,-172.5 4064.74,-176 4074.74,-179.5 4074.74,-172.5"/>
</g>
<!-- CarouselWithThumbnailComponent -->
<g id="node7" class="node">
<title>CarouselWithThumbnailComponent</title>
<polygon fill="#ffffb3" stroke="black" points="6432.03,-122 6211.97,-122 6211.97,-86 6432.03,-86 6432.03,-122"/>
<text text-anchor="middle" x="6322" y="-99.8" font-family="Times,serif" font-size="14.00">CarouselWithThumbnailComponent</text>
</g>
<!-- CarouselWithThumbnailComponent&#45;&gt;AppModule -->
<g id="edge7" class="edge">
<title>CarouselWithThumbnailComponent&#45;&gt;AppModule</title>
<path fill="none" stroke="black" d="M6322,-122.03C6322,-142.77 6322,-174 6322,-174 6322,-174 4074.87,-174 4074.87,-174"/>
<polygon fill="black" stroke="black" points="4074.87,-170.5 4064.87,-174 4074.87,-177.5 4074.87,-170.5"/>
</g>
<!-- ContactUsComponent -->
<g id="node8" class="node">
<title>ContactUsComponent</title>
<polygon fill="#ffffb3" stroke="black" points="6194.43,-122 6053.57,-122 6053.57,-86 6194.43,-86 6194.43,-122"/>
<text text-anchor="middle" x="6124" y="-99.8" font-family="Times,serif" font-size="14.00">ContactUsComponent</text>
</g>
<!-- ContactUsComponent&#45;&gt;AppModule -->
<g id="edge8" class="edge">
<title>ContactUsComponent&#45;&gt;AppModule</title>
<path fill="none" stroke="black" d="M6124,-122.13C6124,-142.57 6124,-173 6124,-173 6124,-173 4074.97,-173 4074.97,-173"/>
<polygon fill="black" stroke="black" points="4074.97,-169.5 4064.97,-173 4074.97,-176.5 4074.97,-169.5"/>
</g>
<!-- DishCardComponent -->
<g id="node9" class="node">
<title>DishCardComponent</title>
<polygon fill="#ffffb3" stroke="black" points="6035.49,-122 5900.51,-122 5900.51,-86 6035.49,-86 6035.49,-122"/>
<text text-anchor="middle" x="5968" y="-99.8" font-family="Times,serif" font-size="14.00">DishCardComponent</text>
</g>
<!-- DishCardComponent&#45;&gt;AppModule -->
<g id="edge9" class="edge">
<title>DishCardComponent&#45;&gt;AppModule</title>
<path fill="none" stroke="black" d="M5968,-122.31C5968,-142.15 5968,-171 5968,-171 5968,-171 4074.98,-171 4074.98,-171"/>
<polygon fill="black" stroke="black" points="4074.98,-167.5 4064.98,-171 4074.98,-174.5 4074.98,-167.5"/>
</g>
<!-- DynamicLabelComponent -->
<g id="node10" class="node">
<title>DynamicLabelComponent</title>
<polygon fill="#ffffb3" stroke="black" points="5882.02,-122 5717.98,-122 5717.98,-86 5882.02,-86 5882.02,-122"/>
<text text-anchor="middle" x="5800" y="-99.8" font-family="Times,serif" font-size="14.00">DynamicLabelComponent</text>
</g>
<!-- DynamicLabelComponent&#45;&gt;AppModule -->
<g id="edge10" class="edge">
<title>DynamicLabelComponent&#45;&gt;AppModule</title>
<path fill="none" stroke="black" d="M5800,-122.11C5800,-141.34 5800,-169 5800,-169 5800,-169 4074.74,-169 4074.74,-169"/>
<polygon fill="black" stroke="black" points="4074.74,-165.5 4064.74,-169 4074.74,-172.5 4074.74,-165.5"/>
</g>
<!-- EditPostsComponent -->
<g id="node11" class="node">
<title>EditPostsComponent</title>
<polygon fill="#ffffb3" stroke="black" points="5700.23,-122 5565.77,-122 5565.77,-86 5700.23,-86 5700.23,-122"/>
<text text-anchor="middle" x="5633" y="-99.8" font-family="Times,serif" font-size="14.00">EditPostsComponent</text>
</g>
<!-- EditPostsComponent&#45;&gt;AppModule -->
<g id="edge11" class="edge">
<title>EditPostsComponent&#45;&gt;AppModule</title>
<path fill="none" stroke="black" d="M5633,-122.17C5633,-141.09 5633,-168 5633,-168 5633,-168 4074.83,-168 4074.83,-168"/>
<polygon fill="black" stroke="black" points="4074.83,-164.5 4064.83,-168 4074.83,-171.5 4074.83,-164.5"/>
</g>
<!-- FavouritesComponent -->
<g id="node12" class="node">
<title>FavouritesComponent</title>
<polygon fill="#ffffb3" stroke="black" points="5548.43,-122 5407.57,-122 5407.57,-86 5548.43,-86 5548.43,-122"/>
<text text-anchor="middle" x="5478" y="-99.8" font-family="Times,serif" font-size="14.00">FavouritesComponent</text>
</g>
<!-- FavouritesComponent&#45;&gt;AppModule -->
<g id="edge12" class="edge">
<title>FavouritesComponent&#45;&gt;AppModule</title>
<path fill="none" stroke="black" d="M5478,-122.27C5478,-140.56 5478,-166 5478,-166 5478,-166 4074.98,-166 4074.98,-166"/>
<polygon fill="black" stroke="black" points="4074.98,-162.5 4064.98,-166 4074.98,-169.5 4074.98,-162.5"/>
</g>
<!-- FilterdateCardComponent -->
<g id="node13" class="node">
<title>FilterdateCardComponent</title>
<polygon fill="#ffffb3" stroke="black" points="5390.19,-122 5227.81,-122 5227.81,-86 5390.19,-86 5390.19,-122"/>
<text text-anchor="middle" x="5309" y="-99.8" font-family="Times,serif" font-size="14.00">FilterdateCardComponent</text>
</g>
<!-- FilterdateCardComponent&#45;&gt;AppModule -->
<g id="edge13" class="edge">
<title>FilterdateCardComponent&#45;&gt;AppModule</title>
<path fill="none" stroke="black" d="M5309,-122.3C5309,-140.27 5309,-165 5309,-165 5309,-165 4074.69,-165 4074.69,-165"/>
<polygon fill="black" stroke="black" points="4074.69,-161.5 4064.69,-165 4074.69,-168.5 4074.69,-161.5"/>
</g>
<!-- FilterlistCardComponent -->
<g id="node14" class="node">
<title>FilterlistCardComponent</title>
<polygon fill="#ffffb3" stroke="black" points="5209.99,-122 5054.01,-122 5054.01,-86 5209.99,-86 5209.99,-122"/>
<text text-anchor="middle" x="5132" y="-99.8" font-family="Times,serif" font-size="14.00">FilterlistCardComponent</text>
</g>
<!-- FilterlistCardComponent&#45;&gt;AppModule -->
<g id="edge14" class="edge">
<title>FilterlistCardComponent&#45;&gt;AppModule</title>
<path fill="none" stroke="black" d="M5132,-122.02C5132,-139.37 5132,-163 5132,-163 5132,-163 4074.78,-163 4074.78,-163"/>
<polygon fill="black" stroke="black" points="4074.78,-159.5 4064.78,-163 4074.78,-166.5 4074.78,-159.5"/>
</g>
<!-- FooterComponent -->
<g id="node15" class="node">
<title>FooterComponent</title>
<polygon fill="#ffffb3" stroke="black" points="5035.88,-122 4918.12,-122 4918.12,-86 5035.88,-86 5035.88,-122"/>
<text text-anchor="middle" x="4977" y="-99.8" font-family="Times,serif" font-size="14.00">FooterComponent</text>
</g>
<!-- FooterComponent&#45;&gt;AppModule -->
<g id="edge15" class="edge">
<title>FooterComponent&#45;&gt;AppModule</title>
<path fill="none" stroke="black" d="M4977,-122.04C4977,-138.73 4977,-161 4977,-161 4977,-161 4074.91,-161 4074.91,-161"/>
<polygon fill="black" stroke="black" points="4074.91,-157.5 4064.91,-161 4074.91,-164.5 4074.91,-157.5"/>
</g>
<!-- GetInvolvedComponent -->
<g id="node16" class="node">
<title>GetInvolvedComponent</title>
<polygon fill="#ffffb3" stroke="black" points="4899.81,-122 4748.19,-122 4748.19,-86 4899.81,-86 4899.81,-122"/>
<text text-anchor="middle" x="4824" y="-99.8" font-family="Times,serif" font-size="14.00">GetInvolvedComponent</text>
</g>
<!-- GetInvolvedComponent&#45;&gt;AppModule -->
<g id="edge16" class="edge">
<title>GetInvolvedComponent&#45;&gt;AppModule</title>
<path fill="none" stroke="black" d="M4824,-122.03C4824,-138.4 4824,-160 4824,-160 4824,-160 4074.66,-160 4074.66,-160"/>
<polygon fill="black" stroke="black" points="4074.66,-156.5 4064.66,-160 4074.66,-163.5 4074.66,-156.5"/>
</g>
<!-- HomeComponent -->
<g id="node17" class="node">
<title>HomeComponent</title>
<polygon fill="#ffffb3" stroke="black" points="4730.55,-122 4615.45,-122 4615.45,-86 4730.55,-86 4730.55,-122"/>
<text text-anchor="middle" x="4673" y="-99.8" font-family="Times,serif" font-size="14.00">HomeComponent</text>
</g>
<!-- HomeComponent&#45;&gt;AppModule -->
<g id="edge17" class="edge">
<title>HomeComponent&#45;&gt;AppModule</title>
<path fill="none" stroke="black" d="M4673,-122.28C4673,-137.95 4673,-158 4673,-158 4673,-158 4075.15,-158 4075.15,-158"/>
<polygon fill="black" stroke="black" points="4075.15,-154.5 4065.15,-158 4075.15,-161.5 4075.15,-154.5"/>
</g>
<!-- InfoCardComponent -->
<g id="node18" class="node">
<title>InfoCardComponent</title>
<polygon fill="#ffffb3" stroke="black" points="4596.87,-122 4465.13,-122 4465.13,-86 4596.87,-86 4596.87,-122"/>
<text text-anchor="middle" x="4531" y="-99.8" font-family="Times,serif" font-size="14.00">InfoCardComponent</text>
</g>
<!-- InfoCardComponent&#45;&gt;AppModule -->
<g id="edge18" class="edge">
<title>InfoCardComponent&#45;&gt;AppModule</title>
<path fill="none" stroke="black" d="M4531,-122.19C4531,-137.18 4531,-156 4531,-156 4531,-156 4075,-156 4075,-156"/>
<polygon fill="black" stroke="black" points="4075,-152.5 4065,-156 4075,-159.5 4075,-152.5"/>
</g>
<!-- IvyCarouselComponent -->
<g id="node19" class="node">
<title>IvyCarouselComponent</title>
<polygon fill="#ffffb3" stroke="black" points="4446.75,-122 4297.25,-122 4297.25,-86 4446.75,-86 4446.75,-122"/>
<text text-anchor="middle" x="4372" y="-99.8" font-family="Times,serif" font-size="14.00">IvyCarouselComponent</text>
</g>
<!-- IvyCarouselComponent&#45;&gt;AppModule -->
<g id="edge19" class="edge">
<title>IvyCarouselComponent&#45;&gt;AppModule</title>
<path fill="none" stroke="black" d="M4372,-122.12C4372,-136.78 4372,-155 4372,-155 4372,-155 4074.75,-155 4074.75,-155"/>
<polygon fill="black" stroke="black" points="4074.75,-151.5 4064.75,-155 4074.75,-158.5 4074.75,-151.5"/>
</g>
<!-- LoginComponent -->
<g id="node20" class="node">
<title>LoginComponent</title>
<polygon fill="#ffffb3" stroke="black" points="4279.28,-122 4164.72,-122 4164.72,-86 4279.28,-86 4279.28,-122"/>
<text text-anchor="middle" x="4222" y="-99.8" font-family="Times,serif" font-size="14.00">LoginComponent</text>
</g>
<!-- LoginComponent&#45;&gt;AppModule -->
<g id="edge20" class="edge">
<title>LoginComponent&#45;&gt;AppModule</title>
<path fill="none" stroke="black" d="M4222,-122.25C4222,-136.18 4222,-153 4222,-153 4222,-153 4074.72,-153 4074.72,-153"/>
<polygon fill="black" stroke="black" points="4074.72,-149.5 4064.72,-153 4074.72,-156.5 4074.72,-149.5"/>
</g>
<!-- MapComponent -->
<g id="node21" class="node">
<title>MapComponent</title>
<polygon fill="#ffffb3" stroke="black" points="4146.49,-122 4039.51,-122 4039.51,-86 4146.49,-86 4146.49,-122"/>
<text text-anchor="middle" x="4093" y="-99.8" font-family="Times,serif" font-size="14.00">MapComponent</text>
</g>
<!-- MapComponent&#45;&gt;AppModule -->
<g id="edge21" class="edge">
<title>MapComponent&#45;&gt;AppModule</title>
<path fill="none" stroke="black" d="M4052.17,-122.11C4052.17,-122.11 4052.17,-140.99 4052.17,-140.99"/>
<polygon fill="black" stroke="black" points="4048.67,-140.99 4052.17,-150.99 4055.67,-140.99 4048.67,-140.99"/>
</g>
<!-- MenuEditComponent -->
<g id="node22" class="node">
<title>MenuEditComponent</title>
<polygon fill="#ffffb3" stroke="black" points="4021.83,-122 3884.17,-122 3884.17,-86 4021.83,-86 4021.83,-122"/>
<text text-anchor="middle" x="3953" y="-99.8" font-family="Times,serif" font-size="14.00">MenuEditComponent</text>
</g>
<!-- MenuEditComponent&#45;&gt;AppModule -->
<g id="edge22" class="edge">
<title>MenuEditComponent&#45;&gt;AppModule</title>
<path fill="none" stroke="black" d="M4001.42,-122.11C4001.42,-122.11 4001.42,-140.99 4001.42,-140.99"/>
<polygon fill="black" stroke="black" points="3997.92,-140.99 4001.42,-150.99 4004.92,-140.99 3997.92,-140.99"/>
</g>
<!-- MultiselectCheckboxDropdownComponent -->
<g id="node23" class="node">
<title>MultiselectCheckboxDropdownComponent</title>
<polygon fill="#ffffb3" stroke="black" points="3866.46,-122 3605.54,-122 3605.54,-86 3866.46,-86 3866.46,-122"/>
<text text-anchor="middle" x="3736" y="-99.8" font-family="Times,serif" font-size="14.00">MultiselectCheckboxDropdownComponent</text>
</g>
<!-- MultiselectCheckboxDropdownComponent&#45;&gt;AppModule -->
<g id="edge23" class="edge">
<title>MultiselectCheckboxDropdownComponent&#45;&gt;AppModule</title>
<path fill="none" stroke="black" d="M3736,-122.25C3736,-136.18 3736,-153 3736,-153 3736,-153 3971.27,-153 3971.27,-153"/>
<polygon fill="black" stroke="black" points="3971.27,-156.5 3981.27,-153 3971.27,-149.5 3971.27,-156.5"/>
</g>
<!-- NavbarComponent -->
<g id="node24" class="node">
<title>NavbarComponent</title>
<polygon fill="#ffffb3" stroke="black" points="3587.03,-122 3464.97,-122 3464.97,-86 3587.03,-86 3587.03,-122"/>
<text text-anchor="middle" x="3526" y="-99.8" font-family="Times,serif" font-size="14.00">NavbarComponent</text>
</g>
<!-- NavbarComponent&#45;&gt;AppModule -->
<g id="edge24" class="edge">
<title>NavbarComponent&#45;&gt;AppModule</title>
<path fill="none" stroke="black" d="M3526,-122.12C3526,-136.78 3526,-155 3526,-155 3526,-155 3971.05,-155 3971.05,-155"/>
<polygon fill="black" stroke="black" points="3971.05,-158.5 3981.05,-155 3971.05,-151.5 3971.05,-158.5"/>
</g>
<!-- NewsArticlesComponent -->
<g id="node25" class="node">
<title>NewsArticlesComponent</title>
<polygon fill="#ffffb3" stroke="black" points="3446.52,-122 3289.48,-122 3289.48,-86 3446.52,-86 3446.52,-122"/>
<text text-anchor="middle" x="3368" y="-99.8" font-family="Times,serif" font-size="14.00">NewsArticlesComponent</text>
</g>
<!-- NewsArticlesComponent&#45;&gt;AppModule -->
<g id="edge25" class="edge">
<title>NewsArticlesComponent&#45;&gt;AppModule</title>
<path fill="none" stroke="black" d="M3368,-122.19C3368,-137.18 3368,-156 3368,-156 3368,-156 3971.03,-156 3971.03,-156"/>
<polygon fill="black" stroke="black" points="3971.03,-159.5 3981.03,-156 3971.03,-152.5 3971.03,-159.5"/>
</g>
<!-- NewsletterComponent -->
<g id="node26" class="node">
<title>NewsletterComponent</title>
<polygon fill="#ffffb3" stroke="black" points="3270.97,-122 3129.03,-122 3129.03,-86 3270.97,-86 3270.97,-122"/>
<text text-anchor="middle" x="3200" y="-99.8" font-family="Times,serif" font-size="14.00">NewsletterComponent</text>
</g>
<!-- NewsletterComponent&#45;&gt;AppModule -->
<g id="edge26" class="edge">
<title>NewsletterComponent&#45;&gt;AppModule</title>
<path fill="none" stroke="black" d="M3200,-122.28C3200,-137.95 3200,-158 3200,-158 3200,-158 3971.34,-158 3971.34,-158"/>
<polygon fill="black" stroke="black" points="3971.34,-161.5 3981.34,-158 3971.34,-154.5 3971.34,-161.5"/>
</g>
<!-- NewsletterSignupComponent -->
<g id="node27" class="node">
<title>NewsletterSignupComponent</title>
<polygon fill="#ffffb3" stroke="black" points="3110.64,-122 2929.36,-122 2929.36,-86 3110.64,-86 3110.64,-122"/>
<text text-anchor="middle" x="3020" y="-99.8" font-family="Times,serif" font-size="14.00">NewsletterSignupComponent</text>
</g>
<!-- NewsletterSignupComponent&#45;&gt;AppModule -->
<g id="edge27" class="edge">
<title>NewsletterSignupComponent&#45;&gt;AppModule</title>
<path fill="none" stroke="black" d="M3020,-122.03C3020,-138.4 3020,-160 3020,-160 3020,-160 3971.18,-160 3971.18,-160"/>
<polygon fill="black" stroke="black" points="3971.18,-163.5 3981.18,-160 3971.18,-156.5 3971.18,-163.5"/>
</g>
<!-- PageErrorComponent -->
<g id="node28" class="node">
<title>PageErrorComponent</title>
<polygon fill="#ffffb3" stroke="black" points="2911.08,-122 2772.92,-122 2772.92,-86 2911.08,-86 2911.08,-122"/>
<text text-anchor="middle" x="2842" y="-99.8" font-family="Times,serif" font-size="14.00">PageErrorComponent</text>
</g>
<!-- PageErrorComponent&#45;&gt;AppModule -->
<g id="edge28" class="edge">
<title>PageErrorComponent&#45;&gt;AppModule</title>
<path fill="none" stroke="black" d="M2842,-122.04C2842,-138.73 2842,-161 2842,-161 2842,-161 3971.31,-161 3971.31,-161"/>
<polygon fill="black" stroke="black" points="3971.31,-164.5 3981.31,-161 3971.31,-157.5 3971.31,-164.5"/>
</g>
<!-- PartnerCardComponent -->
<g id="node29" class="node">
<title>PartnerCardComponent</title>
<polygon fill="#ffffb3" stroke="black" points="2754.47,-122 2605.53,-122 2605.53,-86 2754.47,-86 2754.47,-122"/>
<text text-anchor="middle" x="2680" y="-99.8" font-family="Times,serif" font-size="14.00">PartnerCardComponent</text>
</g>
<!-- PartnerCardComponent&#45;&gt;AppModule -->
<g id="edge29" class="edge">
<title>PartnerCardComponent&#45;&gt;AppModule</title>
<path fill="none" stroke="black" d="M2680,-122.02C2680,-139.37 2680,-163 2680,-163 2680,-163 3971.33,-163 3971.33,-163"/>
<polygon fill="black" stroke="black" points="3971.33,-166.5 3981.33,-163 3971.33,-159.5 3971.33,-166.5"/>
</g>
<!-- PasswordChangeFormComponent -->
<g id="node30" class="node">
<title>PasswordChangeFormComponent</title>
<polygon fill="#ffffb3" stroke="black" points="2587.09,-122 2378.91,-122 2378.91,-86 2587.09,-86 2587.09,-122"/>
<text text-anchor="middle" x="2483" y="-99.8" font-family="Times,serif" font-size="14.00">PasswordChangeFormComponent</text>
</g>
<!-- PasswordChangeFormComponent&#45;&gt;AppModule -->
<g id="edge30" class="edge">
<title>PasswordChangeFormComponent&#45;&gt;AppModule</title>
<path fill="none" stroke="black" d="M2483,-122.3C2483,-140.27 2483,-165 2483,-165 2483,-165 3971.01,-165 3971.01,-165"/>
<polygon fill="black" stroke="black" points="3971.01,-168.5 3981.01,-165 3971.01,-161.5 3971.01,-168.5"/>
</g>
<!-- PostComponent -->
<g id="node31" class="node">
<title>PostComponent</title>
<polygon fill="#ffffb3" stroke="black" points="2360.95,-122 2255.05,-122 2255.05,-86 2360.95,-86 2360.95,-122"/>
<text text-anchor="middle" x="2308" y="-99.8" font-family="Times,serif" font-size="14.00">PostComponent</text>
</g>
<!-- PostComponent&#45;&gt;AppModule -->
<g id="edge31" class="edge">
<title>PostComponent&#45;&gt;AppModule</title>
<path fill="none" stroke="black" d="M2308,-122.27C2308,-140.56 2308,-166 2308,-166 2308,-166 3971.03,-166 3971.03,-166"/>
<polygon fill="black" stroke="black" points="3971.03,-169.5 3981.03,-166 3971.03,-162.5 3971.03,-169.5"/>
</g>
<!-- PrivacyPolicyComponent -->
<g id="node32" class="node">
<title>PrivacyPolicyComponent</title>
<polygon fill="#ffffb3" stroke="black" points="2236.87,-122 2077.13,-122 2077.13,-86 2236.87,-86 2236.87,-122"/>
<text text-anchor="middle" x="2157" y="-99.8" font-family="Times,serif" font-size="14.00">PrivacyPolicyComponent</text>
</g>
<!-- PrivacyPolicyComponent&#45;&gt;AppModule -->
<g id="edge32" class="edge">
<title>PrivacyPolicyComponent&#45;&gt;AppModule</title>
<path fill="none" stroke="black" d="M2157,-122.17C2157,-141.09 2157,-168 2157,-168 2157,-168 3970.97,-168 3970.97,-168"/>
<polygon fill="black" stroke="black" points="3970.97,-171.5 3980.97,-168 3970.97,-164.5 3970.97,-171.5"/>
</g>
<!-- ProfileComponent -->
<g id="node33" class="node">
<title>ProfileComponent</title>
<polygon fill="#ffffb3" stroke="black" points="2058.93,-122 1939.07,-122 1939.07,-86 2058.93,-86 2058.93,-122"/>
<text text-anchor="middle" x="1999" y="-99.8" font-family="Times,serif" font-size="14.00">ProfileComponent</text>
</g>
<!-- ProfileComponent&#45;&gt;AppModule -->
<g id="edge33" class="edge">
<title>ProfileComponent&#45;&gt;AppModule</title>
<path fill="none" stroke="black" d="M1999,-122.11C1999,-141.34 1999,-169 1999,-169 1999,-169 3971.19,-169 3971.19,-169"/>
<polygon fill="black" stroke="black" points="3971.19,-172.5 3981.19,-169 3971.19,-165.5 3971.19,-172.5"/>
</g>
<!-- RequiredStarComponent -->
<g id="node34" class="node">
<title>RequiredStarComponent</title>
<polygon fill="#ffffb3" stroke="black" points="1921.7,-122 1766.3,-122 1766.3,-86 1921.7,-86 1921.7,-122"/>
<text text-anchor="middle" x="1844" y="-99.8" font-family="Times,serif" font-size="14.00">RequiredStarComponent</text>
</g>
<!-- RequiredStarComponent&#45;&gt;AppModule -->
<g id="edge34" class="edge">
<title>RequiredStarComponent&#45;&gt;AppModule</title>
<path fill="none" stroke="black" d="M1844,-122.31C1844,-142.15 1844,-171 1844,-171 1844,-171 3970.94,-171 3970.94,-171"/>
<polygon fill="black" stroke="black" points="3970.94,-174.5 3980.94,-171 3970.94,-167.5 3970.94,-174.5"/>
</g>
<!-- ResourcesComponent -->
<g id="node35" class="node">
<title>ResourcesComponent</title>
<polygon fill="#ffffb3" stroke="black" points="1748.36,-122 1609.64,-122 1609.64,-86 1748.36,-86 1748.36,-122"/>
<text text-anchor="middle" x="1679" y="-99.8" font-family="Times,serif" font-size="14.00">ResourcesComponent</text>
</g>
<!-- ResourcesComponent&#45;&gt;AppModule -->
<g id="edge35" class="edge">
<title>ResourcesComponent&#45;&gt;AppModule</title>
<path fill="none" stroke="black" d="M1679,-122.13C1679,-142.57 1679,-173 1679,-173 1679,-173 3971.32,-173 3971.32,-173"/>
<polygon fill="black" stroke="black" points="3971.32,-176.5 3981.32,-173 3971.32,-169.5 3971.32,-176.5"/>
</g>
<!-- RestaurantCardComponent -->
<g id="node36" class="node">
<title>RestaurantCardComponent</title>
<polygon fill="#ffffb3" stroke="black" points="1591.41,-122 1422.59,-122 1422.59,-86 1591.41,-86 1591.41,-122"/>
<text text-anchor="middle" x="1507" y="-99.8" font-family="Times,serif" font-size="14.00">RestaurantCardComponent</text>
</g>
<!-- RestaurantCardComponent&#45;&gt;AppModule -->
<g id="edge36" class="edge">
<title>RestaurantCardComponent&#45;&gt;AppModule</title>
<path fill="none" stroke="black" d="M1507,-122.03C1507,-142.77 1507,-174 1507,-174 1507,-174 3971.17,-174 3971.17,-174"/>
<polygon fill="black" stroke="black" points="3971.17,-177.5 3981.17,-174 3971.17,-170.5 3971.17,-177.5"/>
</g>
<!-- RestaurantNearbyCardComponent -->
<g id="node37" class="node">
<title>RestaurantNearbyCardComponent</title>
<polygon fill="#ffffb3" stroke="black" points="1404.61,-122 1195.39,-122 1195.39,-86 1404.61,-86 1404.61,-122"/>
<text text-anchor="middle" x="1300" y="-99.8" font-family="Times,serif" font-size="14.00">RestaurantNearbyCardComponent</text>
</g>
<!-- RestaurantNearbyCardComponent&#45;&gt;AppModule -->
<g id="edge37" class="edge">
<title>RestaurantNearbyCardComponent&#45;&gt;AppModule</title>
<path fill="none" stroke="black" d="M1300,-122.17C1300,-143.5 1300,-176 1300,-176 1300,-176 3971.32,-176 3971.32,-176"/>
<polygon fill="black" stroke="black" points="3971.32,-179.5 3981.32,-176 3971.32,-172.5 3971.32,-179.5"/>
</g>
<!-- RestaurantPageComponent -->
<g id="node38" class="node">
<title>RestaurantPageComponent</title>
<polygon fill="#ffffb3" stroke="black" points="1177.41,-122 1008.59,-122 1008.59,-86 1177.41,-86 1177.41,-122"/>
<text text-anchor="middle" x="1093" y="-99.8" font-family="Times,serif" font-size="14.00">RestaurantPageComponent</text>
</g>
<!-- RestaurantPageComponent&#45;&gt;AppModule -->
<g id="edge38" class="edge">
<title>RestaurantPageComponent&#45;&gt;AppModule</title>
<path fill="none" stroke="black" d="M1093,-122.29C1093,-144.21 1093,-178 1093,-178 1093,-178 3971.3,-178 3971.3,-178"/>
<polygon fill="black" stroke="black" points="3971.3,-181.5 3981.3,-178 3971.3,-174.5 3971.3,-181.5"/>
</g>
<!-- RestaurantSetupComponent -->
<g id="node39" class="node">
<title>RestaurantSetupComponent</title>
<polygon fill="#ffffb3" stroke="black" points="990.59,-122 817.41,-122 817.41,-86 990.59,-86 990.59,-122"/>
<text text-anchor="middle" x="904" y="-99.8" font-family="Times,serif" font-size="14.00">RestaurantSetupComponent</text>
</g>
<!-- RestaurantSetupComponent&#45;&gt;AppModule -->
<g id="edge39" class="edge">
<title>RestaurantSetupComponent&#45;&gt;AppModule</title>
<path fill="none" stroke="black" d="M904,-122.16C904,-144.35 904,-179 904,-179 904,-179 3971.27,-179 3971.27,-179"/>
<polygon fill="black" stroke="black" points="3971.27,-182.5 3981.27,-179 3971.27,-175.5 3971.27,-182.5"/>
</g>
<!-- SubscriberProfileFormComponent -->
<g id="node40" class="node">
<title>SubscriberProfileFormComponent</title>
<polygon fill="#ffffb3" stroke="black" points="799.63,-122 590.37,-122 590.37,-86 799.63,-86 799.63,-122"/>
<text text-anchor="middle" x="695" y="-99.8" font-family="Times,serif" font-size="14.00">SubscriberProfileFormComponent</text>
</g>
<!-- SubscriberProfileFormComponent&#45;&gt;AppModule -->
<g id="edge40" class="edge">
<title>SubscriberProfileFormComponent&#45;&gt;AppModule</title>
<path fill="none" stroke="black" d="M695,-122.25C695,-145.02 695,-181 695,-181 695,-181 3971.22,-181 3971.22,-181"/>
<polygon fill="black" stroke="black" points="3971.22,-184.5 3981.22,-181 3971.22,-177.5 3971.22,-184.5"/>
</g>
<!-- TermsOfServiceComponent -->
<g id="node41" class="node">
<title>TermsOfServiceComponent</title>
<polygon fill="#ffffb3" stroke="black" points="571.84,-122 398.16,-122 398.16,-86 571.84,-86 571.84,-122"/>
<text text-anchor="middle" x="485" y="-99.8" font-family="Times,serif" font-size="14.00">TermsOfServiceComponent</text>
</g>
<!-- TermsOfServiceComponent&#45;&gt;AppModule -->
<g id="edge41" class="edge">
<title>TermsOfServiceComponent&#45;&gt;AppModule</title>
<path fill="none" stroke="black" d="M485,-122.32C485,-145.66 485,-183 485,-183 485,-183 3971.11,-183 3971.11,-183"/>
<polygon fill="black" stroke="black" points="3971.11,-186.5 3981.11,-183 3971.11,-179.5 3971.11,-186.5"/>
</g>
<!-- ThankyouPageComponent -->
<g id="node42" class="node">
<title>ThankyouPageComponent</title>
<polygon fill="#ffffb3" stroke="black" points="379.81,-122 214.19,-122 214.19,-86 379.81,-86 379.81,-122"/>
<text text-anchor="middle" x="297" y="-99.8" font-family="Times,serif" font-size="14.00">ThankyouPageComponent</text>
</g>
<!-- ThankyouPageComponent&#45;&gt;AppModule -->
<g id="edge42" class="edge">
<title>ThankyouPageComponent&#45;&gt;AppModule</title>
<path fill="none" stroke="black" d="M297,-122.15C297,-145.76 297,-184 297,-184 297,-184 3971.16,-184 3971.16,-184"/>
<polygon fill="black" stroke="black" points="3971.16,-187.5 3981.16,-184 3971.16,-180.5 3971.16,-187.5"/>
</g>
<!-- VirtualScrollingComponent -->
<g id="node43" class="node">
<title>VirtualScrollingComponent</title>
<polygon fill="#ffffb3" stroke="black" points="196.32,-122 23.68,-122 23.68,-86 196.32,-86 196.32,-122"/>
<text text-anchor="middle" x="110" y="-99.8" font-family="Times,serif" font-size="14.00">VirtualScrollingComponent</text>
</g>
<!-- VirtualScrollingComponent&#45;&gt;AppModule -->
<g id="edge43" class="edge">
<title>VirtualScrollingComponent&#45;&gt;AppModule</title>
<path fill="none" stroke="black" d="M110,-122.2C110,-146.36 110,-186 110,-186 110,-186 3971.05,-186 3971.05,-186"/>
<polygon fill="black" stroke="black" points="3971.05,-189.5 3981.05,-186 3971.05,-182.5 3971.05,-189.5"/>
</g>
<!-- AppComponent  -->
<g id="node46" class="node">
<title>AppComponent </title>
<polygon fill="#80b1d3" stroke="black" points="4077.44,-252 3968.56,-252 3968.56,-216 4077.44,-216 4077.44,-252"/>
<text text-anchor="middle" x="4023" y="-229.8" font-family="Times,serif" font-size="14.00">AppComponent </text>
</g>
<!-- AppModule&#45;&gt;AppComponent  -->
<g id="edge45" class="edge">
<title>AppModule&#45;&gt;AppComponent </title>
<path fill="none" stroke="black" stroke-dasharray="1,5" d="M4023,-187.11C4023,-187.11 4023,-205.99 4023,-205.99"/>
<polygon fill="black" stroke="black" points="4019.5,-205.99 4023,-215.99 4026.5,-205.99 4019.5,-205.99"/>
</g>
<!-- AppRoutingModule -->
<g id="node45" class="node">
<title>AppRoutingModule</title>
<polygon fill="#8dd3c7" stroke="black" points="7659.27,-122 7656.27,-126 7635.27,-126 7632.27,-122 7530.73,-122 7530.73,-86 7659.27,-86 7659.27,-122"/>
<text text-anchor="middle" x="7595" y="-99.8" font-family="Times,serif" font-size="14.00">AppRoutingModule</text>
</g>
<!-- AppRoutingModule&#45;&gt;AppModule -->
<g id="edge44" class="edge">
<title>AppRoutingModule&#45;&gt;AppModule</title>
<path fill="none" stroke="black" d="M7595,-122.2C7595,-146.36 7595,-186 7595,-186 7595,-186 4074.66,-186 4074.66,-186"/>
<polygon fill="black" stroke="black" points="4074.66,-182.5 4064.66,-186 4074.66,-189.5 4074.66,-182.5"/>
</g>
</g>
</svg>
